#N canvas 564 307 462 206 10;
#X obj 20 159 dac~ 1 2;
#X obj 20 13 adc~ 1 2 3 4 5 6 7 8 9 10;
#X obj 89 160 writesf~ 10, f 15;
#X msg 221 63 print;
#X msg 219 88 start;
#X msg 220 110 stop;
#X msg 287 90 print;
#X msg 285 115 start;
#X msg 286 137 stop;
#X msg 218 31 open -bytes 4 ./out/tmp.wav;
#X msg 283 58 open -bytes 4 ./out/tmp2.wav;
#X obj 218 161 writesf~ 3;
#X connect 1 0 0 0;
#X connect 1 0 2 0;
#X connect 1 1 0 1;
#X connect 1 1 2 1;
#X connect 1 2 0 0;
#X connect 1 2 2 2;
#X connect 1 3 0 1;
#X connect 1 3 2 3;
#X connect 1 4 2 4;
#X connect 1 4 11 0;
#X connect 1 5 2 5;
#X connect 1 5 11 1;
#X connect 1 6 2 6;
#X connect 1 6 11 2;
#X connect 1 7 2 7;
#X connect 1 8 2 8;
#X connect 1 9 2 9;
#X connect 3 0 2 0;
#X connect 4 0 2 0;
#X connect 5 0 2 0;
#X connect 6 0 11 0;
#X connect 7 0 11 0;
#X connect 8 0 11 0;
#X connect 9 0 2 0;
#X connect 10 0 11 0;
