#N canvas 25 35 929 448 10;
#X declare -path ../p -path ../myosc;
#X obj 54 57 tgl 15 0 empty empty empty 17 7 0 10 -262144 -1 -1 1 1
;
#X obj 54 81 switch~;
#X obj 54 29 inlet;
#X msg 722 159 preset \$1;
#X floatatom 722 136 5 0 0 0 - - -;
#X floatatom 778 285 5 0 0 0 - - -;
#X obj 735 350 + 1;
#X obj 736 327 f;
#X obj 736 305 bng 15 250 50 0 empty empty empty 17 7 0 10 -262144
-1 -1;
#X obj 99 27 declare -path ../p -path ../myosc;
#X obj 60 349 throw~1-4;
#X text 731 262 save preset;
#X obj 65 214 randgate~;
#X obj 265 221 randgate~;
#X obj 477 227 randgate~;
#X floatatom 823 129 5 0 0 0 - - -;
#X msg 824 154 add_freq \$1;
#X floatatom 827 180 5 0 0 0 - - -;
#X msg 828 205 add_gain \$1;
#X msg 636 52 0.519531;
#X obj 636 28 loadbang;
#X msg 778 332 \; hichi2_1 save \$1 \; hichi2_2 save \$1 \; hichi2_3
save \$1 \;;
#X obj 732 211 s hichi2_2;
#X obj 724 234 s hichi2_3;
#X obj 739 188 s hichi2_1;
#X obj 780 73 / 127;
#X obj 778 96 - 1;
#X obj 722 23 myNotein 2;
#X obj 53 110 MyOsc hichi2_1 hichiriki_bit 259;
#X obj 266 109 MyOsc hichi2_2 hichiriki_bit 259;
#X obj 478 110 MyOsc hichi2_3 hichiriki_bit 259;
#X obj 778 308 spigot;
#X obj 822 286 tgl 15 0 empty empty empty 17 7 0 10 -262144 -1 -1 1
1;
#X obj 327 351 throw~5-7;
#X connect 0 0 1 0;
#X connect 2 0 0 0;
#X connect 3 0 22 0;
#X connect 3 0 23 0;
#X connect 3 0 24 0;
#X connect 4 0 3 0;
#X connect 5 0 7 1;
#X connect 5 0 31 0;
#X connect 6 0 5 0;
#X connect 7 0 6 0;
#X connect 8 0 7 0;
#X connect 12 0 10 0;
#X connect 12 0 33 0;
#X connect 13 0 10 1;
#X connect 13 0 10 0;
#X connect 13 0 33 1;
#X connect 14 0 10 1;
#X connect 14 0 33 2;
#X connect 15 0 16 0;
#X connect 16 0 22 0;
#X connect 17 0 18 0;
#X connect 18 0 24 0;
#X connect 19 0 28 3;
#X connect 19 0 29 3;
#X connect 19 0 30 3;
#X connect 20 0 19 0;
#X connect 25 0 26 0;
#X connect 26 0 17 0;
#X connect 27 0 4 0;
#X connect 27 1 25 0;
#X connect 28 0 12 0;
#X connect 29 0 13 0;
#X connect 30 0 14 0;
#X connect 31 0 21 0;
#X connect 32 0 31 1;
