#N canvas 607 192 514 468 10;
#X obj 52 26 inlet;
#X obj 50 52 tgl 15 0 empty empty empty 17 7 0 10 -262144 -1 -1 1 1
;
#X obj 47 81 switch~;
#X obj 153 76 myPlay~ hichiriki_bit;
#X obj 217 47 tgl 15 0 empty empty empty 17 7 0 10 -262144 -1 -1 1
1;
#X floatatom 274 43 5 0 0 0 - - -;
#X obj 70 359 throw~1-4;
#X obj 191 359 throw~8-10;
#X msg 154 48 bang;
#X obj 186 118 del~ 100;
#X obj 285 106 / 2;
#X obj 188 199 del~ 100;
#X obj 267 130 / 4;
#X obj 258 210 del~ 100;
#X obj 159 235 *~ 0.05;
#X obj 259 239 *~ 0.05;
#X connect 0 0 1 0;
#X connect 1 0 2 0;
#X connect 3 0 6 0;
#X connect 3 0 7 0;
#X connect 3 0 9 0;
#X connect 3 0 11 0;
#X connect 4 0 3 1;
#X connect 5 0 3 2;
#X connect 5 0 10 0;
#X connect 5 0 12 0;
#X connect 8 0 3 0;
#X connect 9 0 7 1;
#X connect 9 0 13 0;
#X connect 9 0 6 1;
#X connect 10 0 9 1;
#X connect 11 0 14 0;
#X connect 12 0 11 1;
#X connect 12 0 13 1;
#X connect 13 0 15 0;
#X connect 14 0 6 1;
#X connect 15 0 6 0;
