#N canvas 103 22 765 735 10;
#X declare -path ../p -path ../myosc;
#X obj 24 48 tgl 15 0 empty empty empty 17 7 0 10 -262144 -1 -1 1 1
;
#X obj 24 72 switch~;
#X obj 24 20 inlet;
#X obj 69 18 declare -path ../p -path ../myosc;
#X obj 125 85 MyOsc ryu3_1 ryuteki_bit 515;
#X obj 209 189 MyOsc ryu3_2 ryuteki_bit 515;
#X obj 227 290 MyOsc ryu3_3 ryuteki_bit 515;
#X obj 39 668 throw~1-4;
#X obj 135 660 throw~1-4;
#X obj 225 668 throw~5-7;
#X obj 135 513 Ryuteki_FM;
#X obj 250 517 Hichiriki_FM;
#X obj 573 563 granu;
#X obj 655 585 tgl 15 0 empty empty empty 17 7 0 10 -262144 -1 -1 0
1;
#X obj 297 669 throw~8-10;
#X obj 438 454 shou_pad;
#X obj 508 497 tgl 15 0 empty empty empty 17 7 0 10 -262144 -1 -1 0
1;
#X obj 46 511 myGain~ 0.5;
#X obj 545 628 myGain~ 1;
#X obj 612 633 myGain~ 1;
#X obj 397 522 myGain~ 1;
#X obj 462 524 myGain~ 1;
#X obj 244 481 tgl 15 0 empty empty empty 17 7 0 10 -262144 -1 -1 0
1;
#X obj 137 487 tgl 15 0 empty empty empty 17 7 0 10 -262144 -1 -1 0
1;
#X connect 0 0 1 0;
#X connect 2 0 0 0;
#X connect 10 0 8 0;
#X connect 10 0 9 0;
#X connect 10 1 9 1;
#X connect 10 1 8 1;
#X connect 11 0 9 0;
#X connect 11 0 8 0;
#X connect 11 1 9 1;
#X connect 11 1 8 1;
#X connect 12 0 18 0;
#X connect 13 0 18 1;
#X connect 13 0 19 1;
#X connect 15 0 20 0;
#X connect 15 1 21 0;
#X connect 16 0 20 1;
#X connect 16 0 21 1;
#X connect 17 0 7 0;
#X connect 17 0 7 1;
#X connect 17 0 9 0;
#X connect 20 0 8 3;
#X connect 20 0 14 0;
#X connect 20 0 9 0;
#X connect 21 0 8 2;
#X connect 21 0 14 1;
#X connect 21 0 9 2;
#X connect 21 0 9 1;
#X connect 22 0 11 0;
#X connect 23 0 10 0;
