#N canvas 86 38 974 438 10;
#X declare -path ../p -path ../myosc;
#X obj 44 47 tgl 15 0 empty empty empty 17 7 0 10 -262144 -1 -1 1 1
;
#X obj 44 71 switch~;
#X obj 44 19 inlet;
#X msg 708 155 preset \$1;
#X floatatom 697 75 5 0 0 0 - - -;
#X obj 725 184 s ryu2_1;
#X obj 718 207 s ryu2_2;
#X obj 710 230 s ryu2_3;
#X msg 769 356 \; ryu2_1 save \$1 \; ryu2_2 save \$1 \; ryu2_3 save
\$1 \;;
#X floatatom 768 298 5 0 0 0 - - -;
#X obj 725 340 + 1;
#X obj 726 317 f;
#X obj 726 295 bng 15 250 50 0 empty empty empty 17 7 0 10 -262144
-1 -1;
#X obj 89 17 declare -path ../p -path ../myosc;
#X obj 43 384 throw~1-4;
#X text 721 275 save preset;
#X obj 55 204 randgate~;
#X obj 255 211 randgate~;
#X obj 467 217 randgate~;
#X obj 355 350 throw~5-7;
#X floatatom 839 159 5 0 0 0 - - -;
#X msg 840 184 add_freq \$1;
#X floatatom 843 210 5 0 0 0 - - -;
#X msg 844 235 add_gain \$1;
#X obj 468 100 MyOsc ryu2_3 ryuteki_bit 515;
#X obj 790 89 / 127;
#X obj 791 114 - 1;
#X obj 711 46 myNotein 1;
#X obj 896 27 r modin;
#X obj 898 52 * 2;
#X obj 896 74 - 1;
#X obj 830 26 r bendin;
#X obj 831 53 / 127;
#X obj 835 77 * 2;
#X obj 833 99 - 1;
#X obj 833 128 * 24;
#X obj 256 99 MyOsc ryu2_2 ryuteki_bit 515;
#X obj 43 100 MyOsc ryu2_1 ryuteki_bit 515;
#X floatatom 865 104 5 0 0 0 - - -;
#X obj 769 328 spigot;
#X obj 812 302 tgl 15 0 empty empty empty 17 7 0 10 -262144 -1 -1 1
1;
#X obj 45 304 mygain~ 0.5;
#X obj 136 304 mygain~ 0.5;
#X obj 71 328 mygain~ 0.5;
#X obj 160 327 mygain~ 0.5;
#X floatatom 214 257 5 0 0 0 - - -;
#X connect 0 0 1 0;
#X connect 2 0 0 0;
#X connect 3 0 5 0;
#X connect 3 0 6 0;
#X connect 3 0 7 0;
#X connect 4 0 3 0;
#X connect 9 0 11 1;
#X connect 9 0 39 0;
#X connect 10 0 9 0;
#X connect 11 0 10 0;
#X connect 12 0 11 0;
#X connect 16 0 19 0;
#X connect 16 0 41 0;
#X connect 17 0 19 1;
#X connect 17 0 43 0;
#X connect 18 0 19 2;
#X connect 18 0 42 0;
#X connect 20 0 21 0;
#X connect 21 0 6 0;
#X connect 21 0 5 0;
#X connect 21 0 7 0;
#X connect 22 0 23 0;
#X connect 23 0 5 0;
#X connect 23 0 6 0;
#X connect 23 0 7 0;
#X connect 24 0 18 0;
#X connect 25 0 26 0;
#X connect 27 0 4 0;
#X connect 27 1 25 0;
#X connect 28 0 29 0;
#X connect 29 0 30 0;
#X connect 30 0 22 0;
#X connect 31 0 32 0;
#X connect 32 0 33 0;
#X connect 33 0 34 0;
#X connect 34 0 35 0;
#X connect 35 0 20 0;
#X connect 36 0 17 0;
#X connect 37 0 16 0;
#X connect 38 0 35 1;
#X connect 39 0 8 0;
#X connect 40 0 39 1;
#X connect 41 0 14 0;
#X connect 42 0 14 2;
#X connect 43 0 14 1;
#X connect 44 0 14 3;
#X connect 45 0 41 1;
#X connect 45 0 43 1;
#X connect 45 0 42 1;
#X connect 45 0 44 1;
