#N canvas 834 44 355 485 10;
#X declare -path p;
#X obj 25 26 cnv 15 100 60 empty empty Cloned_Sound_Object 20 12 0
14 -262130 -66577 0;
#N canvas 0 22 450 278 (subpatch) 0;
#X array \$0-wave 515 float 2;
#X coords 0 1 514 -1 100 75 1 0 0;
#X restore 220 96 graph;
#X obj 25 204 tabosc4~ \$0-wave;
#X obj 25 151 r \$0-freq;
#X floatatom 25 177 5 0 0 0 - - -, f 5;
#X floatatom 47 253 5 0 0 0 - - -, f 5;
#X obj 47 231 r \$0-gain;
#X obj 25 276 *~;
#X text 49 51 to 4ch out;
#X obj 226 31 declare -path p;
#X obj 25 437 throw~1-4;
#X floatatom 144 282 5 0 0 0 - - -, f 5;
#X floatatom 145 304 5 0 0 0 - - -, f 5;
#X obj 192 205 r \$0-gain_ch1;
#X obj 193 233 r \$0-gain_ch2;
#X floatatom 146 324 5 0 0 0 - - -, f 5;
#X floatatom 145 345 5 0 0 0 - - -, f 5;
#X obj 193 261 r \$0-gain_ch3;
#X obj 193 288 r \$0-gain_ch4;
#X obj 25 388 *~;
#X obj 51 388 *~;
#X obj 79 388 *~;
#X obj 105 388 *~;
#X text 294 172 515;
#X connect 2 0 7 0;
#X connect 3 0 4 0;
#X connect 4 0 2 0;
#X connect 5 0 7 1;
#X connect 6 0 5 0;
#X connect 7 0 19 0;
#X connect 7 0 20 0;
#X connect 7 0 21 0;
#X connect 7 0 22 0;
#X connect 11 0 19 1;
#X connect 12 0 20 1;
#X connect 13 0 11 0;
#X connect 14 0 12 0;
#X connect 15 0 21 1;
#X connect 16 0 22 1;
#X connect 17 0 15 0;
#X connect 18 0 16 0;
#X connect 19 0 10 0;
#X connect 20 0 10 1;
#X connect 21 0 10 2;
#X connect 22 0 10 3;
