#N canvas 796 42 424 680 10;
#X declare -path sound -path myosc -path p -path scene;
#X declare -path ../p -path ../myosc;
#X declare -path ../p -path ../myosc;
#X declare -path ../p -path ../myosc;
#X declare -path ../p -path ../myosc;
#X obj 286 137 adc~ 1;
#X obj 34 64 AudioFileManager;
#N canvas 155 297 1015 377 SoundOut 0;
#X obj 36 331 dac~ 1 2 3 4;
#X obj 36 196 *~;
#X obj 36 227 clip~ -1 1;
#X obj 36 102 catch~ out1;
#X obj 351 125 line~;
#X msg 351 102 \$1 20;
#X obj 112 197 *~;
#X obj 112 228 clip~ -1 1;
#X obj 187 197 *~;
#X obj 187 228 clip~ -1 1;
#X obj 263 198 *~;
#X obj 263 229 clip~ -1 1;
#X obj 112 103 catch~ out2;
#X obj 187 103 catch~ out3;
#X obj 263 104 catch~ out4;
#X floatatom 351 76 5 0 0 0 - - -;
#X obj 351 48 r master_vol;
#X obj 40 16 cnv 15 100 60 empty empty Audio_Output_Controller 20 12
0 14 -233017 -66577 0;
#X text 57 45 to 4ch.;
#X obj 458 198 *~;
#X obj 773 127 line~;
#X msg 773 104 \$1 20;
#X obj 485 199 *~;
#X obj 514 199 *~;
#X floatatom 773 78 5 0 0 0 - - -;
#X obj 459 46 catch~ out5;
#X obj 485 78 catch~ out6;
#X obj 514 105 catch~ out7;
#X obj 903 26 loadbang;
#X msg 903 54 1;
#X obj 772 28 r toOF_ch_master_vol;
#X obj 175 332 writesf~;
#X obj 249 303 r master_writesf;
#X obj 173 304 clip~ -1 1;
#X obj 458 332 dac~ 5 6 7;
#X obj 598 198 *~;
#X obj 625 199 *~;
#X obj 654 199 *~;
#X obj 599 46 catch~ out8;
#X obj 625 78 catch~ out9;
#X obj 654 105 catch~ out10;
#X obj 598 332 dac~ 8 9 10;
#X connect 1 0 2 0;
#X connect 2 0 0 0;
#X connect 3 0 1 0;
#X connect 3 0 33 0;
#X connect 4 0 1 1;
#X connect 4 0 6 1;
#X connect 4 0 8 1;
#X connect 4 0 10 1;
#X connect 5 0 4 0;
#X connect 6 0 7 0;
#X connect 7 0 0 1;
#X connect 8 0 9 0;
#X connect 9 0 0 2;
#X connect 10 0 11 0;
#X connect 11 0 0 3;
#X connect 12 0 6 0;
#X connect 13 0 8 0;
#X connect 14 0 10 0;
#X connect 15 0 5 0;
#X connect 16 0 15 0;
#X connect 19 0 34 0;
#X connect 20 0 19 1;
#X connect 20 0 22 1;
#X connect 20 0 23 1;
#X connect 20 0 35 1;
#X connect 20 0 36 1;
#X connect 20 0 37 1;
#X connect 21 0 20 0;
#X connect 22 0 34 1;
#X connect 23 0 34 2;
#X connect 24 0 21 0;
#X connect 25 0 19 0;
#X connect 26 0 22 0;
#X connect 27 0 23 0;
#X connect 28 0 29 0;
#X connect 29 0 24 0;
#X connect 30 0 24 0;
#X connect 32 0 31 0;
#X connect 33 0 31 0;
#X connect 35 0 41 0;
#X connect 36 0 41 1;
#X connect 37 0 41 2;
#X connect 38 0 35 0;
#X connect 39 0 36 0;
#X connect 40 0 37 0;
#X restore 49 640 pd SoundOut;
#N canvas 414 153 575 327 scene_0 0;
#N canvas 0 22 450 300 (subpatch) 0;
#X array contours_wave 515 float 2;
#X coords 0 1 514 -1 200 140 1 0 0;
#X restore 61 93 graph;
#X restore 289 483 pd scene_0;
#X obj 63 135 r start;
#X obj 116 135 r debug_start;
#N canvas 615 121 368 369 debug 0;
#X obj 29 33 inlet;
#X obj 29 103 tgl 15 0 empty empty empty 17 7 0 10 -262144 -1 -1 0
1;
#X obj 29 124 switch~;
#X obj 92 285 throw~ out1;
#X obj 173 285 throw~ out2;
#X obj 92 219 osc~;
#X obj 173 220 osc~;
#X obj 92 162 random 1200;
#X obj 173 179 random 1200;
#X obj 92 124 metro 300;
#X obj 173 156 del 150;
#X obj 94 73 print debug_start;
#X obj 105 314 throw~ out5;
#X obj 187 313 throw~ out6;
#X obj 256 220 osc~;
#X obj 256 179 random 1200;
#X obj 256 156 del 75;
#X obj 256 285 throw~ out3;
#X obj 270 313 throw~ out7;
#X connect 0 0 1 0;
#X connect 0 0 9 0;
#X connect 0 0 11 0;
#X connect 1 0 2 0;
#X connect 5 0 3 0;
#X connect 5 0 12 0;
#X connect 6 0 4 0;
#X connect 6 0 13 0;
#X connect 7 0 5 0;
#X connect 8 0 6 0;
#X connect 9 0 7 0;
#X connect 9 0 10 0;
#X connect 9 0 16 0;
#X connect 10 0 8 0;
#X connect 14 0 17 0;
#X connect 14 0 18 0;
#X connect 15 0 14 0;
#X connect 16 0 15 0;
#X restore 116 166 pd debug;
#N canvas 562 50 765 583 sound_test 0;
#X obj 44 47 tgl 15 0 empty empty empty 17 7 0 10 -262144 -1 -1 0 1
;
#X obj 53 388 throw~ out1;
#X obj 52 420 throw~ out2;
#X obj 49 453 throw~ out3;
#X obj 49 481 throw~ out4;
#X obj 176 387 throw~ out5;
#X obj 175 419 throw~ out6;
#X obj 172 453 throw~ out7;
#X obj 172 480 throw~ out8;
#X obj 44 71 switch~;
#X obj 44 19 inlet;
#X obj 53 217 MyOsc test1 ryuteki_bit 515;
#X obj 266 216 MyOsc test2 ryuteki_bit 515;
#X obj 477 217 MyOsc test3 ryuteki_bit 515;
#X connect 0 0 9 0;
#X connect 10 0 0 0;
#X connect 11 0 1 0;
#X connect 11 0 5 0;
#X connect 12 0 2 0;
#X connect 12 0 6 0;
#X connect 13 0 1 0;
#X connect 13 0 2 0;
#X connect 13 0 7 0;
#X restore 63 193 pd sound_test;
#N canvas 533 387 450 300 controller 0;
#X obj 22 14 cnv 15 100 60 empty empty controller_for_composing 20
12 0 14 -233017 -66577 0;
#X obj 51 235 s master_vol;
#X obj 51 92 vsl 15 128 0 1 0 0 empty empty empty 0 -9 0 10 -262144
-1 -1 0 1;
#X obj 158 231 s toggle_key_test;
#X obj 157 197 tgl 15 0 empty empty empty 17 7 0 10 -262144 -1 -1 0
1;
#X obj 289 141 WritesfController;
#X connect 2 0 1 0;
#X connect 4 0 3 0;
#X restore 226 71 pd controller;
#X obj 82 163 tgl 15 0 empty empty empty 17 7 0 10 -262144 -1 -1 0
1;
#N canvas 32 22 1044 670 sound_set_1 0;
#X obj 58 605 throw~1-4;
#X obj 157 604 throw~5-8;
#X obj 55 71 switch~;
#X obj 55 44 tgl 15 0 empty empty empty 17 7 0 10 -262144 -1 -1 0 1
;
#X obj 55 17 r sound_set_1_enable;
#X msg 94 290 bang;
#X msg 678 83 0.519531;
#X obj 678 59 loadbang;
#X obj 96 326 tabplay~ ryuteki_bit;
#X obj 232 351 spigot;
#X obj 272 324 tgl 15 0 empty empty empty 17 7 0 10 -262144 -1 -1 0
1;
#X obj 232 380 del 100;
#X floatatom 295 325 5 0 0 0 - - -;
#X msg 517 319 bang;
#X obj 519 355 tabplay~ ryuteki_bit;
#X obj 655 380 spigot;
#X obj 695 353 tgl 15 0 empty empty empty 17 7 0 10 -262144 -1 -1 0
1;
#X obj 655 409 del 100;
#X floatatom 718 354 5 0 0 0 - - -;
#X obj 499 66 s ryu1;
#X obj 541 66 s ryu2;
#X obj 583 66 s hichi1;
#X msg 499 41 preset \$1;
#X floatatom 499 18 5 0 0 0 - - -;
#N canvas 274 113 785 487 clicks 0;
#X obj 70 398 outlet~;
#X obj 125 397 outlet~;
#X obj 181 397 outlet~;
#X obj 236 396 outlet~;
#X msg 78 76 bang;
#X floatatom 205 80 5 0 0 0 - - -;
#X obj 140 78 tgl 15 0 empty empty empty 17 7 0 10 -262144 -1 -1 0
1;
#X msg 646 324 0.519531;
#X obj 646 300 loadbang;
#X msg 442 278 bang;
#X obj 95 229 tabread4~ ryuteki_shot;
#X obj 95 177 line~;
#X msg 95 151 0 \, 1 \$1;
#X obj 95 201 *~ 16384;
#X msg 95 129 1895;
#X msg 249 81 bang;
#X floatatom 371 83 5 0 0 0 - - -;
#X obj 311 83 tgl 15 0 empty empty empty 17 7 0 10 -262144 -1 -1 0
1;
#X obj 266 234 tabread4~ ryuteki_shot;
#X obj 266 182 line~;
#X msg 266 156 0 \, 1 \$1;
#X obj 266 206 *~ 16384;
#X msg 266 134 1895;
#X obj 76 256 +~;
#X obj 252 259 +~;
#X obj 81 22 key_test;
#X obj 77 102 myPlay~ hichiriki_bit;
#X obj 443 303 myPlay~ ryuteki_shot;
#X obj 248 107 myPlay~ hichiriki_bit;
#X obj 445 354 MyOsc hichi1_1 hichiriki_bit 259;
#X obj 539 184 MyOsc ryu1_1 ryuteki_bit 515;
#X connect 4 0 14 0;
#X connect 4 0 26 0;
#X connect 5 0 26 2;
#X connect 6 0 26 1;
#X connect 7 0 29 3;
#X connect 8 0 7 0;
#X connect 9 0 27 0;
#X connect 10 0 23 1;
#X connect 11 0 13 0;
#X connect 12 0 11 0;
#X connect 13 0 10 0;
#X connect 14 0 12 0;
#X connect 15 0 22 0;
#X connect 15 0 28 0;
#X connect 16 0 28 2;
#X connect 17 0 28 1;
#X connect 18 0 24 1;
#X connect 19 0 21 0;
#X connect 20 0 19 0;
#X connect 21 0 18 0;
#X connect 22 0 20 0;
#X connect 23 0 0 0;
#X connect 24 0 1 0;
#X connect 25 0 4 0;
#X connect 25 1 15 0;
#X connect 26 0 23 0;
#X connect 27 0 1 0;
#X connect 28 0 24 0;
#X restore 244 514 pd clicks;
#N canvas 351 138 732 453 base_clicks 0;
#X obj 65 415 outlet~;
#X obj 120 414 outlet~;
#X obj 176 414 outlet~;
#X obj 231 413 outlet~;
#X obj 62 62 myPlay~ hichi_click_edit1_l;
#X msg 72 27 bang;
#X obj 97 99 myPlay~ hichi_click_edit1_r;
#N canvas 650 380 450 300 legacy 0;
#X obj 230 275 tgl 15 0 empty empty empty 17 7 0 10 -262144 -1 -1 0
1;
#X msg 169 189 bang;
#X floatatom 296 193 5 0 0 0 - - -;
#X obj 231 191 tgl 15 0 empty empty empty 17 7 0 10 -262144 -1 -1 0
1;
#X msg 168 273 bang;
#X floatatom 290 277 5 0 0 0 - - -;
#X obj 168 215 myPlay~ hichiriki_bit;
#X obj 167 299 myPlay~ hichiriki_bit;
#X obj 265 47 bng 15 250 50 0 empty empty empty 17 7 0 10 -262144 -1
-1;
#X obj 119 351 myGain~ 1;
#X obj 188 351 myGain~ 1;
#X obj 489 49 table hichi_clicks1_l_int 80;
#X obj 489 77 table hichi_clicks1_r_int 80;
#X obj 332 139 tabread hichi_clicks1_l_int;
#X obj 334 226 tabread hichi_clicks1_r_int;
#X msg 259 163 1;
#X obj 361 67 line;
#X obj 361 90 int;
#X floatatom 356 110 5 0 0 0 - - -;
#X obj 300 167 clip 0 100;
#X obj 298 253 clip 0 100;
#X obj 261 75 t b b b;
#X msg 361 33 0 \, 80 40000;
#X obj 514 122 table hichi_clicks1_gain 80;
#X obj 334 329 tabread hichi_clicks1_gain;
#X floatatom 334 353 5 0 0 0 - - -;
#X obj 534 237 sel 80;
#X obj 534 270 del 2000;
#X msg 526 294 0;
#X connect 0 0 7 1;
#X connect 1 0 6 0;
#X connect 2 0 6 2;
#X connect 3 0 6 1;
#X connect 4 0 7 0;
#X connect 5 0 7 2;
#X connect 6 0 9 0;
#X connect 7 0 10 0;
#X connect 8 0 21 0;
#X connect 13 0 19 0;
#X connect 14 0 20 0;
#X connect 15 0 3 0;
#X connect 15 0 0 0;
#X connect 16 0 17 0;
#X connect 17 0 18 0;
#X connect 17 0 24 0;
#X connect 18 0 13 0;
#X connect 18 0 14 0;
#X connect 18 0 26 0;
#X connect 19 0 2 0;
#X connect 20 0 5 0;
#X connect 21 0 22 0;
#X connect 21 1 4 0;
#X connect 21 1 1 0;
#X connect 21 2 15 0;
#X connect 22 0 16 0;
#X connect 24 0 25 0;
#X connect 25 0 9 1;
#X connect 25 0 10 1;
#X connect 26 0 27 0;
#X connect 27 0 28 0;
#X connect 28 0 25 0;
#X connect 28 0 3 0;
#X connect 28 0 0 0;
#X restore 593 411 pd legacy;
#X connect 4 0 0 0;
#X connect 5 0 4 0;
#X connect 5 0 6 0;
#X connect 6 0 1 0;
#X restore 336 523 pd base_clicks;
#X obj 316 600 throw~1-4;
#X obj 415 599 throw~5-8;
#X obj 480 241 throw~1-4;
#X obj 579 240 throw~5-8;
#X obj 477 113 MyOsc hichi1 hichiriki_bit 259;
#X obj 57 116 MyOsc ryu1_1 ryuteki_bit 515;
#X obj 270 115 MyOsc ryu1_2 ryuteki_bit 515;
#X obj 684 113 MyOsc hichi2 hichiriki_bit 259;
#X connect 3 0 2 0;
#X connect 4 0 3 0;
#X connect 5 0 8 0;
#X connect 6 0 30 3;
#X connect 6 0 33 3;
#X connect 7 0 6 0;
#X connect 8 1 9 0;
#X connect 9 0 11 0;
#X connect 10 0 9 1;
#X connect 11 0 5 0;
#X connect 12 0 11 1;
#X connect 13 0 14 0;
#X connect 14 1 15 0;
#X connect 15 0 17 0;
#X connect 16 0 15 1;
#X connect 17 0 13 0;
#X connect 18 0 17 1;
#X connect 22 0 21 0;
#X connect 22 0 20 0;
#X connect 22 0 19 0;
#X connect 23 0 22 0;
#X connect 24 0 0 0;
#X connect 24 0 1 0;
#X connect 24 1 0 1;
#X connect 24 1 1 1;
#X connect 24 2 0 2;
#X connect 24 2 1 2;
#X connect 24 3 0 3;
#X connect 24 3 1 3;
#X connect 25 0 26 0;
#X connect 25 0 27 0;
#X connect 25 1 26 1;
#X connect 25 1 27 1;
#X connect 25 2 26 2;
#X connect 25 2 27 2;
#X connect 25 3 26 3;
#X connect 25 3 27 3;
#X connect 30 0 28 0;
#X connect 30 0 29 0;
#X connect 33 0 28 1;
#X connect 33 0 29 1;
#X restore 291 433 pd sound_set_1;
#X obj 179 166 tgl 15 0 empty empty empty 17 7 0 10 -262144 -1 -1 0
1;
#N canvas 420 123 765 583 sound_set_2 0;
#X obj 44 47 tgl 15 0 empty empty empty 17 7 0 10 -262144 -1 -1 0 1
;
#X obj 54 440 throw~ out1;
#X obj 53 472 throw~ out2;
#X obj 50 505 throw~ out3;
#X obj 50 533 throw~ out4;
#X obj 177 439 throw~ out5;
#X obj 176 471 throw~ out6;
#X obj 173 505 throw~ out7;
#X obj 252 1085 throw~ out8;
#X obj 44 71 switch~;
#X obj 44 19 inlet;
#X obj 108 53 loadbang;
#X msg 513 143 preset \$1;
#X floatatom 513 120 5 0 0 0 - - -;
#X obj 513 168 s ryu2_1;
#X obj 576 168 s ryu2_2;
#X obj 639 168 s ryu2_3;
#X msg 547 463 \; ryu2_1 save \$1 \; ryu2_2 save \$1 \; ryu2_3 save
\$1 \;;
#X floatatom 591 384 5 0 0 0 - - -;
#X obj 545 395 + 1;
#X obj 546 372 f;
#X obj 546 350 bng 15 250 50 0 empty empty empty 17 7 0 10 -262144
-1 -1;
#X obj 179 48 key;
#X floatatom 182 74 5 0 0 0 - - -;
#X obj 139 174 random 107;
#X obj 139 106 metro 20;
#X obj 138 129 random 3;
#X obj 137 152 sel 0;
#X msg 113 84 1;
#X obj 336 12 tgl 15 0 empty empty empty 17 7 0 10 -262144 -1 -1 0
1;
#X obj 334 122 == 0;
#X msg 364 185 0;
#X obj 334 156 sel 1 0;
#X floatatom 373 15 5 0 0 0 - - -;
#X floatatom 394 73 5 0 0 0 - - -;
#X obj 336 185 f;
#X floatatom 399 155 5 0 0 0 - - -;
#X obj 335 96 random 2;
#X obj 334 36 metro 25;
#X obj 57 348 *~;
#X obj 97 314 r \$0-gain1;
#X obj 182 355 *~;
#X obj 53 217 MyOsc ryu2_1 ryuteki_bit 515;
#X obj 266 216 MyOsc ryu2_2 ryuteki_bit 515;
#X obj 478 217 MyOsc ryu2_3 ryuteki_bit 515;
#X connect 0 0 9 0;
#X connect 10 0 0 0;
#X connect 11 0 28 0;
#X connect 12 0 14 0;
#X connect 12 0 15 0;
#X connect 12 0 16 0;
#X connect 13 0 12 0;
#X connect 18 0 17 0;
#X connect 18 0 20 1;
#X connect 19 0 18 0;
#X connect 20 0 19 0;
#X connect 21 0 20 0;
#X connect 22 0 23 0;
#X connect 25 0 26 0;
#X connect 26 0 27 0;
#X connect 27 0 24 0;
#X connect 28 0 25 0;
#X connect 29 0 38 0;
#X connect 30 0 32 0;
#X connect 31 0 13 0;
#X connect 32 0 35 0;
#X connect 32 1 31 0;
#X connect 33 0 38 1;
#X connect 34 0 37 1;
#X connect 35 0 13 0;
#X connect 36 0 35 1;
#X connect 37 0 30 0;
#X connect 38 0 37 0;
#X connect 39 0 1 0;
#X connect 40 0 39 1;
#X connect 42 0 39 0;
#X connect 43 0 41 0;
#X restore 291 460 pd sound_set_2;
#X obj 33 23 declare -path sound -path myosc -path p -path scene;
#X obj 57 301 Scene1;
#N canvas 35 48 577 345 midi_controller 0;
#X obj 175 38 bendin;
#X floatatom 33 223 5 0 0 0 - - -;
#X obj 174 125 vsl 15 128 0 127 0 0 empty empty empty 0 -9 0 10 -262144
-1 -1 6400 1;
#X obj 260 38 ctlin 1;
#X floatatom 260 61 5 0 0 0 - - -;
#X obj 260 83 vsl 15 128 0 127 0 0 empty empty empty 0 -9 0 10 -262144
-1 -1 0 1;
#X obj 174 265 s bendin;
#X obj 260 264 s modin;
#X obj 416 156 seq;
#X obj 416 39 midiin;
#X msg 438 72 record;
#X msg 442 97 stop record;
#X msg 448 126 write;
#X msg 41 193 0;
#X obj 66 167 ==;
#X obj 49 64 == 0;
#X obj 33 140 t f f;
#X obj 33 117 gate 2;
#X obj 49 86 + 1;
#X obj 66 192 sel 1;
#X obj 31 299 s notein;
#X obj 261 232 / 127;
#X floatatom 97 64 5 0 0 0 - - -;
#X obj 96 86 sel 0;
#X obj 33 40 notein;
#X obj 32 266 pack f f f;
#X floatatom 178 87 5 0 0 0 - - -;
#X obj 177 63 / 128;
#X obj 321 125 pack f f;
#X floatatom 322 71 5 0 0 0 - - -;
#X floatatom 357 71 5 0 0 0 - - -;
#X obj 322 37 ctlin;
#X obj 321 98 swap;
#X obj 322 265 s ctlin;
#X connect 0 0 27 0;
#X connect 1 0 25 0;
#X connect 2 0 6 0;
#X connect 3 0 4 0;
#X connect 4 0 5 0;
#X connect 5 0 21 0;
#X connect 9 0 8 0;
#X connect 10 0 8 0;
#X connect 11 0 8 0;
#X connect 12 0 8 0;
#X connect 13 0 1 0;
#X connect 14 0 19 0;
#X connect 15 0 18 0;
#X connect 16 0 1 0;
#X connect 16 1 14 1;
#X connect 17 0 16 0;
#X connect 17 1 14 0;
#X connect 18 0 17 0;
#X connect 19 0 13 0;
#X connect 21 0 7 0;
#X connect 22 0 23 0;
#X connect 23 1 25 1;
#X connect 24 0 17 1;
#X connect 24 1 15 0;
#X connect 24 1 22 0;
#X connect 24 2 25 2;
#X connect 25 0 20 0;
#X connect 26 0 2 0;
#X connect 27 0 26 0;
#X connect 28 0 33 0;
#X connect 29 0 32 0;
#X connect 30 0 32 1;
#X connect 31 0 29 0;
#X connect 31 1 30 0;
#X connect 32 0 28 0;
#X connect 32 1 28 1;
#X restore 225 96 pd midi_controller;
#X obj 57 326 HichirikiTrio;
#X obj 49 617 s master_vol;
#X obj 49 474 vsl 15 128 0 1 0 0 empty empty empty 0 -9 0 10 -262144
-1 -1 10300 1;
#X obj 136 613 s toggle_key_test;
#X obj 135 579 tgl 15 0 empty empty empty 17 7 0 10 -262144 -1 -1 0
1;
#X text 292 406 legacy;
#X obj 127 243 waves;
#X obj 257 530 WritesfController;
#N canvas 252 170 450 300 tmp 1;
#X obj 25 67 switch~;
#X obj 25 38 tgl 15 0 empty empty empty 17 7 0 10 -262144 -1 -1 1 1
;
#X obj 58 115 adc~ 1 2;
#X text 76 88 soundflower 2;
#X obj 61 220 throw~1-4;
#X obj 227 218 throw~8-10;
#X obj 133 218 throw~5-8;
#X connect 1 0 0 0;
#X connect 2 0 4 0;
#X connect 2 0 6 0;
#X connect 2 0 4 2;
#X connect 2 1 4 1;
#X connect 2 1 6 1;
#X connect 2 1 4 3;
#X restore 297 369 pd tmp;
#X obj 56 371 samplesynth;
#X obj 35 268 tgl 15 0 empty empty empty 17 7 0 10 -262144 -1 -1 1
1;
#X obj 33 300 tgl 15 0 empty empty empty 17 7 0 10 -262144 -1 -1 0
1;
#X obj 35 347 tgl 15 0 empty empty empty 17 7 0 10 -262144 -1 -1 0
1;
#X obj 57 416 hichi_click;
#X connect 4 0 7 0;
#X connect 5 0 6 0;
#X connect 9 0 7 0;
#X connect 11 0 6 0;
#X connect 18 0 17 0;
#X connect 20 0 19 0;
#X connect 26 0 14 0;
#X connect 27 0 16 0;
#X connect 28 0 25 0;
