#N canvas 0 22 450 300 10;
#X obj 81 226 outlet;
#X obj 82 47 r ctlin;
#X obj 82 83 route \$1;
#X obj 82 130 / 127;
#X obj 81 164 expr $f1 * ($f3 - $f2);
#X obj 222 77 loadbang;
#X text 193 42 args: cc_num \, min \, max;
#X obj 81 190 +;
#X obj 180 116 f \$2;
#X obj 220 116 f \$3;
#X connect 1 0 2 0;
#X connect 2 0 3 0;
#X connect 3 0 4 0;
#X connect 4 0 7 0;
#X connect 5 0 8 0;
#X connect 5 0 9 0;
#X connect 7 0 0 0;
#X connect 8 0 4 1;
#X connect 8 0 7 1;
#X connect 9 0 4 2;
