#N canvas 87 59 1018 513 10;
#X obj 171 380 outlet~;
#X floatatom 285 93 10 0 0 0 - - -;
#X obj 189 143 phasor~;
#X obj 170 294 tabread4~ hichiriki_blob;
#X text 281 255 1.98562e+06;
#X obj 176 259 *~ 1.98562e+06;
#X obj 183 169 *~ 44100;
#X obj 85 234 +~;
#X floatatom 83 181 10 0 0 0 - - -;
#X floatatom 279 131 5 0 0 0 - - -;
#X obj 88 97 hsl 128 15 0 1 0 0 empty empty empty -2 -8 0 10 -262144
-1 -1 4100 1;
#X obj 84 118 * 1.98562e+06;
#X obj 464 380 outlet~;
#X floatatom 578 93 10 0 0 0 - - -;
#X obj 482 143 phasor~;
#X text 574 255 1.98562e+06;
#X obj 469 259 *~ 1.98562e+06;
#X obj 476 169 *~ 44100;
#X obj 378 234 +~;
#X floatatom 376 181 10 0 0 0 - - -;
#X floatatom 572 131 5 0 0 0 - - -;
#X obj 381 97 hsl 128 15 0 1 0 0 empty empty empty -2 -8 0 10 -262144
-1 -1 3200 1;
#X obj 377 118 * 1.98562e+06;
#X obj 463 294 tabread4~ ryuteki_blob_1;
#X connect 1 0 2 0;
#X connect 2 0 6 0;
#X connect 3 0 0 0;
#X connect 6 0 7 1;
#X connect 7 0 3 0;
#X connect 8 0 7 0;
#X connect 9 0 6 1;
#X connect 10 0 11 0;
#X connect 11 0 8 0;
#X connect 13 0 14 0;
#X connect 14 0 17 0;
#X connect 17 0 18 1;
#X connect 18 0 23 0;
#X connect 19 0 18 0;
#X connect 20 0 17 1;
#X connect 21 0 22 0;
#X connect 22 0 19 0;
#X connect 23 0 12 0;
