#N canvas 260 22 744 718 10;
#X obj 115 406 +~;
#X floatatom 193 345 5 0 0 2 Index - -;
#X floatatom 142 164 5 0 0 2 Modulator - -;
#X floatatom 86 351 5 0 0 2 Carrier - -;
#X obj 146 369 *~ 100;
#X floatatom 277 229 5 0 0 2 Index - -;
#X floatatom 221 14 5 0 0 2 Modulator - -;
#X obj 222 224 *~ 100;
#X obj 143 219 +~;
#X obj 221 73 +~;
#X floatatom 369 103 5 0 0 2 Index - -;
#X floatatom 336 -59 5 0 0 2 Modulator - -;
#X obj 312 103 *~ 100;
#X obj 313 -2 *~;
#X obj 312 138 delwrite~ \$0-a 10;
#X obj 232 -74 delread~ \$0-a;
#X obj 221 46 sig~;
#X obj 334 -35 sig~;
#X obj 143 189 sig~;
#X obj 86 377 sig~;
#X obj 275 595 outlet~;
#X obj 144 242 phasor~ 1;
#X obj 115 433 phasor~ 1;
#X obj 276 480 *~ 512;
#X obj 275 502 tabread4~ ryuteki_bit;
#X obj 217 110 phasor~ 1;
#X obj 314 23 phasor~ 1;
#X obj 315 68 tabread4~ hichiriki_bit;
#X obj 314 44 *~ 133;
#X obj 222 183 tabread4~ hichiriki_bit;
#X obj 217 141 *~ 133;
#X obj 147 304 tabread4~ hichiriki_bit;
#X obj 144 273 *~ 133;
#X obj 110 508 tabread4~ hichiriki_bit;
#X obj 107 477 *~ 133;
#X obj 109 604 outlet~;
#X obj 276 568 mygain~ 1;
#X obj 108 578 mygain~ 1;
#X floatatom 163 552 5 0 0 0 - - -;
#X floatatom 341 547 5 0 0 0 - - -;
#X obj 397 448 _ctlin 8 0 1;
#X obj 394 422 _ctlin 7 0 1;
#X obj 401 -51 _ctlin 4 1 800;
#X obj 36 284 _ctlin 1 0 800;
#X obj 386 208 _ctlin 6 0 200;
#X obj 312 301 _ctlin 5 0 200;
#X obj 90 109 _ctlin 2 -4 20;
#X obj 131 -25 _ctlin 3 0 40;
#X obj 47 -53 inlet;
#X obj 47 5 switch~;
#X obj 45 -24 tgl 15 0 empty empty empty 17 7 0 10 -262144 -1 -1 0
1;
#X connect 0 0 22 0;
#X connect 1 0 4 1;
#X connect 2 0 18 0;
#X connect 3 0 19 0;
#X connect 4 0 0 1;
#X connect 5 0 7 1;
#X connect 6 0 16 0;
#X connect 7 0 8 1;
#X connect 8 0 21 0;
#X connect 9 0 25 0;
#X connect 10 0 12 1;
#X connect 11 0 17 0;
#X connect 12 0 14 0;
#X connect 12 0 9 1;
#X connect 13 0 26 0;
#X connect 15 0 13 0;
#X connect 16 0 9 0;
#X connect 17 0 13 1;
#X connect 18 0 8 0;
#X connect 19 0 0 0;
#X connect 21 0 32 0;
#X connect 22 0 23 0;
#X connect 22 0 34 0;
#X connect 23 0 24 0;
#X connect 24 0 36 0;
#X connect 25 0 30 0;
#X connect 26 0 28 0;
#X connect 27 0 12 0;
#X connect 28 0 27 0;
#X connect 29 0 7 0;
#X connect 30 0 29 0;
#X connect 31 0 4 0;
#X connect 32 0 31 0;
#X connect 33 0 37 0;
#X connect 34 0 33 0;
#X connect 36 0 20 0;
#X connect 37 0 35 0;
#X connect 38 0 37 1;
#X connect 39 0 36 1;
#X connect 40 0 39 0;
#X connect 41 0 38 0;
#X connect 42 0 11 0;
#X connect 43 0 3 0;
#X connect 44 0 5 0;
#X connect 45 0 1 0;
#X connect 46 0 2 0;
#X connect 47 0 6 0;
#X connect 48 0 50 0;
#X connect 50 0 49 0;
