#N canvas 798 270 450 300 10;
#X obj 48 214 outlet;
#X obj 47 35 key;
#X obj 48 120 sel 49 50 51 52 53 54;
#X obj 48 73 spigot;
#X obj 84 52 tgl 15 0 empty empty empty 17 7 0 10 -262144 -1 -1 0 1
;
#X obj 83 29 r toggle_key_test;
#X obj 92 213 outlet;
#X obj 137 212 outlet;
#X obj 181 211 outlet;
#X obj 227 211 outlet;
#X obj 277 208 outlet;
#X msg 327 182 bang;
#X obj 325 210 outlet;
#X text 214 110 key:1~6 \, and others;
#X connect 1 0 3 0;
#X connect 2 0 0 0;
#X connect 2 1 6 0;
#X connect 2 2 7 0;
#X connect 2 3 8 0;
#X connect 2 4 9 0;
#X connect 2 5 10 0;
#X connect 2 6 11 0;
#X connect 3 0 2 0;
#X connect 4 0 3 1;
#X connect 5 0 4 0;
#X connect 11 0 12 0;
