#N canvas 628 122 322 478 10;
#X obj 104 37 inlet;
#X obj 79 337 line~;
#X msg 79 313 \$1 1;
#X obj 82 287 tgl 15 0 empty empty empty 17 7 0 10 -262144 -1 -1 1
1;
#X obj 113 231 sel 0;
#X obj 114 208 change;
#X msg 178 185 1;
#X obj 115 164 t b b;
#X msg 112 253 0;
#X obj 161 34 inlet;
#X obj 113 186 random \$2;
#X obj 210 35 inlet;
#X obj 42 404 outlet~;
#X obj 29 55 inlet~;
#X floatatom 162 65 5 0 0 0 - - -, f 5;
#X floatatom 128 65 5 0 0 0 - - -, f 5;
#X obj 104 64 tgl 15 0 empty empty empty 17 7 0 10 -262144 -1 -1 0
1;
#X obj 64 142 == 0;
#X obj 42 371 *~;
#X obj 88 113 t f f;
#X obj 220 133 f \$1;
#X obj 270 133 f \$2;
#X obj 114 144 metro \$1;
#X msg 220 156 set \$1;
#X msg 269 156 set \$1;
#X obj 252 92 loadbang;
#X msg 245 204 1;
#X connect 0 0 16 0;
#X connect 1 0 18 1;
#X connect 2 0 1 0;
#X connect 3 0 2 0;
#X connect 4 0 8 0;
#X connect 5 0 4 0;
#X connect 6 0 3 0;
#X connect 7 0 10 0;
#X connect 7 1 6 0;
#X connect 8 0 3 0;
#X connect 9 0 15 0;
#X connect 10 0 5 0;
#X connect 11 0 14 0;
#X connect 13 0 18 0;
#X connect 14 0 10 1;
#X connect 15 0 22 1;
#X connect 16 0 19 0;
#X connect 17 0 3 0;
#X connect 18 0 12 0;
#X connect 19 0 17 0;
#X connect 19 1 22 0;
#X connect 20 0 23 0;
#X connect 21 0 24 0;
#X connect 22 0 7 0;
#X connect 23 0 15 0;
#X connect 24 0 14 0;
#X connect 25 0 21 0;
#X connect 25 0 20 0;
#X connect 25 0 26 0;
#X connect 26 0 3 0;
#X coords 0 -1 1 1 100 25 2 100 60;
