#N canvas 458 22 533 702 10;
#X obj 105 384 +~;
#X floatatom 183 323 5 0 0 2 Index - -;
#X floatatom 132 142 5 0 0 2 Modulator - -;
#X floatatom 76 329 5 0 0 2 Carrier - -;
#X obj 136 347 *~ 100;
#X floatatom 267 207 5 0 0 2 Index - -;
#X floatatom 211 -8 5 0 0 2 Modulator - -;
#X obj 212 202 *~ 100;
#X obj 133 197 +~;
#X obj 211 51 +~;
#X floatatom 359 81 5 0 0 2 Index - -;
#X floatatom 326 -81 5 0 0 2 Modulator - -;
#X obj 302 81 *~ 100;
#X obj 303 -24 *~;
#X obj 302 116 delwrite~ \$0-a 10;
#X obj 222 -96 delread~ \$0-a;
#X obj 211 24 sig~;
#X obj 324 -57 sig~;
#X obj 133 167 sig~;
#X obj 76 355 sig~;
#X obj 104 520 outlet~;
#X obj 305 46 tabread4~ ryuteki_bit;
#X obj 212 161 tabread4~ ryuteki_bit;
#X obj 137 282 tabread4~ ryuteki_bit;
#X obj 134 220 phasor~ 1;
#X obj 134 251 *~ 512;
#X obj 105 411 phasor~ 1;
#X obj 105 439 *~ 512;
#X obj 104 461 tabread4~ ryuteki_bit;
#X obj 207 88 phasor~ 1;
#X obj 207 119 *~ 512;
#X obj 304 1 phasor~ 1;
#X obj 304 22 *~ 512;
#X obj 57 -43 inlet;
#X obj 57 15 switch~;
#X obj 55 -14 tgl 15 0 empty empty empty 17 7 0 10 -262144 -1 -1 1
1;
#X obj 104 492 myGain~ 1;
#X obj 208 409 _ctlin 8 0 1;
#X obj 26 172 _ctlin 1 0 300;
#X obj 74 63 _ctlin 2 0 300;
#X obj 242 507 del~ 1;
#X floatatom 281 475 5 0 0 0 - - -;
#X obj 238 537 outlet~;
#X connect 0 0 26 0;
#X connect 1 0 4 1;
#X connect 2 0 18 0;
#X connect 3 0 19 0;
#X connect 4 0 0 1;
#X connect 5 0 7 1;
#X connect 6 0 16 0;
#X connect 7 0 8 1;
#X connect 8 0 24 0;
#X connect 9 0 29 0;
#X connect 10 0 12 1;
#X connect 11 0 17 0;
#X connect 12 0 14 0;
#X connect 12 0 9 1;
#X connect 13 0 31 0;
#X connect 15 0 13 0;
#X connect 16 0 9 0;
#X connect 17 0 13 1;
#X connect 18 0 8 0;
#X connect 19 0 0 0;
#X connect 21 0 12 0;
#X connect 22 0 7 0;
#X connect 23 0 4 0;
#X connect 24 0 25 0;
#X connect 25 0 23 0;
#X connect 26 0 27 0;
#X connect 27 0 28 0;
#X connect 28 0 36 0;
#X connect 29 0 30 0;
#X connect 30 0 22 0;
#X connect 31 0 32 0;
#X connect 32 0 21 0;
#X connect 33 0 35 0;
#X connect 35 0 34 0;
#X connect 36 0 20 0;
#X connect 36 0 40 0;
#X connect 37 0 36 1;
#X connect 38 0 3 0;
#X connect 39 0 2 0;
#X connect 40 0 42 0;
#X connect 41 0 40 1;
