#N canvas 216 371 450 300 10;
#X obj 49 219 s master_writesf;
#X msg 102 176 start;
#X msg 147 175 stop;
#X msg 186 175 print;
#X obj 106 40 bng 15 250 50 0 empty empty empty 17 7 0 10 -262144 -1
-1;
#X obj 36 124 savepanel;
#X text 126 40 select dir;
#X obj 106 76 bng 15 250 50 0 empty empty empty 17 7 0 10 -258113 -257985
-1;
#X text 126 75 rec start;
#X obj 106 91 bng 15 250 50 0 empty empty empty 17 7 0 10 -262144 -1
-1;
#X text 126 90 rec stop;
#X obj 106 54 bng 15 250 50 0 empty empty empty 17 7 0 10 -262144 -1
-1;
#X text 126 53 infomation;
#X text 102 22 [record ch.1];
#X msg 36 148 open -bytes 4 \$1;
#X connect 1 0 0 0;
#X connect 2 0 0 0;
#X connect 3 0 0 0;
#X connect 4 0 5 0;
#X connect 5 0 14 0;
#X connect 7 0 1 0;
#X connect 9 0 2 0;
#X connect 11 0 3 0;
#X connect 14 0 0 0;
#X coords 0 -1 1 1 100 100 1 100 10;
